# Blender v2.80 (sub 74) OBJ File: ''
# www.blender.org
o Cylinder
v 0.000000 -0.393202 -0.600000
v 0.000000 0.403257 -0.600000
v 0.117054 -0.393202 -0.588471
v 0.117054 0.403257 -0.588471
v 0.229610 -0.393202 -0.554328
v 0.229610 0.403257 -0.554328
v 0.333342 -0.393202 -0.498882
v 0.333342 0.403257 -0.498882
v 0.424264 -0.393202 -0.424264
v 0.424264 0.403257 -0.424264
v 0.498882 -0.393202 -0.333342
v 0.498882 0.403257 -0.333342
v 0.554328 -0.393202 -0.229610
v 0.554328 0.403257 -0.229610
v 0.588471 -0.393202 -0.117054
v 0.588471 0.403257 -0.117054
v 0.600000 -0.393202 -0.000000
v 0.600000 0.403257 -0.000000
v 0.588471 -0.393202 0.117054
v 0.588471 0.403257 0.117054
v 0.554328 -0.393202 0.229610
v 0.554328 0.403257 0.229610
v 0.498882 -0.393202 0.333342
v 0.498882 0.403257 0.333342
v 0.424264 -0.393202 0.424264
v 0.424264 0.403257 0.424264
v 0.333342 -0.393202 0.498882
v 0.333342 0.403257 0.498882
v 0.229610 -0.393202 0.554328
v 0.229610 0.403257 0.554328
v 0.117054 -0.393202 0.588471
v 0.117054 0.403257 0.588471
v -0.000000 -0.393202 0.600000
v -0.000000 0.403257 0.600000
v -0.117054 -0.393202 0.588471
v -0.117054 0.403257 0.588471
v -0.229610 -0.393202 0.554328
v -0.229610 0.403257 0.554328
v -0.333342 -0.393202 0.498882
v -0.333342 0.403257 0.498882
v -0.424264 -0.393202 0.424264
v -0.424264 0.403257 0.424264
v -0.498882 -0.393202 0.333342
v -0.498882 0.403257 0.333342
v -0.554328 -0.393202 0.229610
v -0.554328 0.403257 0.229610
v -0.588471 -0.393202 0.117054
v -0.588471 0.403257 0.117054
v -0.600000 -0.393202 -0.000001
v -0.600000 0.403257 -0.000001
v -0.588471 -0.393202 -0.117055
v -0.588471 0.403257 -0.117055
v -0.554327 -0.393202 -0.229611
v -0.554327 0.403257 -0.229611
v -0.498881 -0.393202 -0.333343
v -0.498881 0.403257 -0.333343
v -0.424264 -0.393202 -0.424265
v -0.424264 0.403257 -0.424265
v -0.333341 -0.393202 -0.498882
v -0.333341 0.403257 -0.498882
v -0.229609 -0.393202 -0.554328
v -0.229609 0.403257 -0.554328
v -0.117053 -0.393202 -0.588471
v -0.117053 0.403257 -0.588471
v 0.000000 0.355408 -0.467877
v 0.091278 0.355408 -0.458887
v 0.179049 0.355408 -0.432262
v 0.259938 0.355408 -0.389025
v 0.330839 0.355408 -0.330839
v 0.389025 0.355408 -0.259938
v 0.432262 0.355408 -0.179049
v 0.458887 0.355408 -0.091278
v 0.467877 0.355408 -0.000000
v 0.458887 0.355408 0.091278
v 0.432262 0.355408 0.179049
v 0.389025 0.355408 0.259938
v 0.330839 0.355408 0.330839
v 0.259938 0.355408 0.389025
v 0.179049 0.355408 0.432262
v 0.091278 0.355408 0.458887
v -0.000000 0.355408 0.467877
v -0.091278 0.355408 0.458887
v -0.179049 0.355408 0.432262
v -0.259939 0.355408 0.389025
v -0.330839 0.355408 0.330839
v -0.389025 0.355408 0.259938
v -0.432262 0.355408 0.179048
v -0.458887 0.355408 0.091278
v -0.467877 0.355408 -0.000000
v -0.458887 0.355408 -0.091279
v -0.432262 0.355408 -0.179049
v -0.389025 0.355408 -0.259939
v -0.330838 0.355408 -0.330839
v -0.259938 0.355408 -0.389026
v -0.179048 0.355408 -0.432262
v -0.091277 0.355408 -0.458887
v 0.000000 -0.087299 -0.467877
v 0.091278 -0.087299 -0.458887
v 0.179049 -0.087299 -0.432262
v 0.259938 -0.087299 -0.389025
v 0.330839 -0.087299 -0.330839
v 0.389025 -0.087299 -0.259938
v 0.432262 -0.087299 -0.179049
v 0.458887 -0.087299 -0.091278
v 0.467877 -0.087299 -0.000000
v 0.458887 -0.087299 0.091278
v 0.432262 -0.087299 0.179049
v 0.389025 -0.087299 0.259938
v 0.330839 -0.087299 0.330839
v 0.259938 -0.087299 0.389025
v 0.179049 -0.087299 0.432262
v 0.091278 -0.087299 0.458887
v -0.000000 -0.087299 0.467877
v -0.091278 -0.087299 0.458887
v -0.179049 -0.087299 0.432262
v -0.259939 -0.087299 0.389025
v -0.330839 -0.087299 0.330839
v -0.389025 -0.087299 0.259938
v -0.432262 -0.087299 0.179048
v -0.458887 -0.087299 0.091278
v -0.467877 -0.087299 -0.000000
v -0.458887 -0.087299 -0.091279
v -0.432262 -0.087299 -0.179049
v -0.389025 -0.087299 -0.259939
v -0.330838 -0.087299 -0.330839
v -0.259938 -0.087299 -0.389026
v -0.179048 -0.087299 -0.432262
v -0.091277 -0.087299 -0.458887
vt 1.000000 0.500000
vt 1.000000 1.000000
vt 0.968750 1.000000
vt 0.968750 0.500000
vt 0.937500 1.000000
vt 0.937500 0.500000
vt 0.906250 1.000000
vt 0.906250 0.500000
vt 0.875000 1.000000
vt 0.875000 0.500000
vt 0.843750 1.000000
vt 0.843750 0.500000
vt 0.812500 1.000000
vt 0.812500 0.500000
vt 0.781250 1.000000
vt 0.781250 0.500000
vt 0.750000 1.000000
vt 0.750000 0.500000
vt 0.718750 1.000000
vt 0.718750 0.500000
vt 0.687500 1.000000
vt 0.687500 0.500000
vt 0.656250 1.000000
vt 0.656250 0.500000
vt 0.625000 1.000000
vt 0.625000 0.500000
vt 0.593750 1.000000
vt 0.593750 0.500000
vt 0.562500 1.000000
vt 0.562500 0.500000
vt 0.531250 1.000000
vt 0.531250 0.500000
vt 0.500000 1.000000
vt 0.500000 0.500000
vt 0.468750 1.000000
vt 0.468750 0.500000
vt 0.437500 1.000000
vt 0.437500 0.500000
vt 0.406250 1.000000
vt 0.406250 0.500000
vt 0.375000 1.000000
vt 0.375000 0.500000
vt 0.343750 1.000000
vt 0.343750 0.500000
vt 0.312500 1.000000
vt 0.312500 0.500000
vt 0.281250 1.000000
vt 0.281250 0.500000
vt 0.250000 1.000000
vt 0.250000 0.500000
vt 0.218750 1.000000
vt 0.218750 0.500000
vt 0.187500 1.000000
vt 0.187500 0.500000
vt 0.156250 1.000000
vt 0.156250 0.500000
vt 0.125000 1.000000
vt 0.125000 0.500000
vt 0.093750 1.000000
vt 0.093750 0.500000
vt 0.062500 1.000000
vt 0.062500 0.500000
vt 0.718750 1.000000
vt 0.687500 1.000000
vt 0.031250 1.000000
vt 0.031250 0.500000
vt 0.000000 1.000000
vt 0.000000 0.500000
vt 0.750000 0.490000
vt 0.796822 0.485388
vt 0.841844 0.471731
vt 0.883337 0.449553
vt 0.919706 0.419706
vt 0.949553 0.383337
vt 0.971731 0.341844
vt 0.985388 0.296822
vt 0.990000 0.250000
vt 0.985388 0.203178
vt 0.971731 0.158156
vt 0.949553 0.116663
vt 0.919706 0.080294
vt 0.883337 0.050447
vt 0.841844 0.028269
vt 0.796822 0.014612
vt 0.750000 0.010000
vt 0.703178 0.014612
vt 0.658156 0.028269
vt 0.616663 0.050447
vt 0.580294 0.080294
vt 0.550447 0.116663
vt 0.528269 0.158156
vt 0.514611 0.203179
vt 0.510000 0.250000
vt 0.514612 0.296822
vt 0.528269 0.341844
vt 0.550447 0.383337
vt 0.580295 0.419706
vt 0.616663 0.449553
vt 0.658156 0.471731
vt 0.703179 0.485389
vt 0.968750 1.000000
vt 1.000000 1.000000
vt 1.000000 1.000000
vt 0.968750 1.000000
vt 0.437500 1.000000
vt 0.406250 1.000000
vt 0.156250 1.000000
vt 0.125000 1.000000
vt 0.843750 1.000000
vt 0.812500 1.000000
vt 0.562500 1.000000
vt 0.531250 1.000000
vt 0.281250 1.000000
vt 0.250000 1.000000
vt 0.937500 1.000000
vt 0.656250 1.000000
vt 0.375000 1.000000
vt 0.093750 1.000000
vt 0.781250 1.000000
vt 0.500000 1.000000
vt 0.218750 1.000000
vt 0.906250 1.000000
vt 0.625000 1.000000
vt 0.343750 1.000000
vt 0.062500 1.000000
vt 0.750000 1.000000
vt 0.468750 1.000000
vt 0.187500 1.000000
vt 0.875000 1.000000
vt 0.593750 1.000000
vt 0.312500 1.000000
vt 0.031250 1.000000
vt 0.000000 1.000000
vt 0.296822 0.485388
vt 0.250000 0.490000
vt 0.203179 0.485389
vt 0.158156 0.471731
vt 0.116663 0.449553
vt 0.080295 0.419706
vt 0.050447 0.383337
vt 0.028269 0.341844
vt 0.014612 0.296822
vt 0.010000 0.250000
vt 0.014611 0.203179
vt 0.028269 0.158156
vt 0.050447 0.116663
vt 0.080294 0.080294
vt 0.116663 0.050447
vt 0.158156 0.028269
vt 0.203178 0.014612
vt 0.250000 0.010000
vt 0.296822 0.014612
vt 0.341844 0.028269
vt 0.383337 0.050447
vt 0.419706 0.080294
vt 0.449553 0.116663
vt 0.471731 0.158156
vt 0.485388 0.203178
vt 0.490000 0.250000
vt 0.485388 0.296822
vt 0.471731 0.341844
vt 0.449553 0.383337
vt 0.419706 0.419706
vt 0.383337 0.449553
vt 0.341844 0.471731
vt 0.156250 1.000000
vt 0.125000 1.000000
vt 0.562500 1.000000
vt 0.531250 1.000000
vt 0.937500 1.000000
vt 0.093750 1.000000
vt 0.500000 1.000000
vt 0.906250 1.000000
vt 0.062500 1.000000
vt 0.468750 1.000000
vt 0.875000 1.000000
vt 0.031250 1.000000
vt 0.437500 1.000000
vt 0.843750 1.000000
vt 0.000000 1.000000
vt 0.406250 1.000000
vt 0.812500 1.000000
vt 0.375000 1.000000
vt 0.781250 1.000000
vt 0.343750 1.000000
vt 0.750000 1.000000
vt 0.312500 1.000000
vt 0.718750 1.000000
vt 0.281250 1.000000
vt 0.687500 1.000000
vt 0.250000 1.000000
vt 0.656250 1.000000
vt 0.218750 1.000000
vt 0.625000 1.000000
vt 0.187500 1.000000
vt 0.593750 1.000000
vn 0.0980 0.0000 -0.9952
vn 0.2903 0.0000 -0.9569
vn 0.4714 0.0000 -0.8819
vn 0.6344 0.0000 -0.7730
vn 0.7730 0.0000 -0.6344
vn 0.8819 0.0000 -0.4714
vn 0.9569 0.0000 -0.2903
vn 0.9952 0.0000 -0.0980
vn 0.9952 0.0000 0.0980
vn 0.9569 0.0000 0.2903
vn 0.8819 0.0000 0.4714
vn 0.7730 0.0000 0.6344
vn 0.6344 0.0000 0.7730
vn 0.4714 0.0000 0.8819
vn 0.2903 0.0000 0.9569
vn 0.0980 0.0000 0.9952
vn -0.0980 0.0000 0.9952
vn -0.2903 0.0000 0.9569
vn -0.4714 0.0000 0.8819
vn -0.6344 0.0000 0.7730
vn -0.7730 0.0000 0.6344
vn -0.8819 0.0000 0.4714
vn -0.9569 0.0000 0.2903
vn -0.9952 0.0000 0.0980
vn -0.9952 0.0000 -0.0980
vn -0.9569 0.0000 -0.2903
vn -0.8819 0.0000 -0.4714
vn -0.7730 0.0000 -0.6344
vn -0.6344 0.0000 -0.7730
vn -0.4714 0.0000 -0.8819
vn -0.3272 0.9397 -0.0993
vn -0.2903 0.0000 -0.9569
vn -0.0980 0.0000 -0.9952
vn 0.0000 -1.0000 0.0000
vn 0.1612 0.9397 -0.3016
vn 0.2643 0.9397 0.2169
vn -0.3016 0.9397 0.1612
vn -0.0993 0.9397 -0.3272
vn 0.3403 0.9397 -0.0335
vn -0.0993 0.9397 0.3272
vn -0.3016 0.9397 -0.1612
vn 0.2169 0.9397 -0.2643
vn 0.2169 0.9397 0.2643
vn -0.3272 0.9397 0.0993
vn -0.0335 0.9397 -0.3403
vn 0.3403 0.9397 0.0335
vn -0.1612 0.9397 0.3016
vn -0.2643 0.9397 -0.2169
vn 0.2643 0.9397 -0.2169
vn 0.1612 0.9397 0.3016
vn -0.3403 0.9397 0.0335
vn 0.0335 0.9397 -0.3403
vn 0.3272 0.9397 0.0993
vn -0.2169 0.9397 0.2643
vn -0.2169 0.9397 -0.2643
vn 0.3016 0.9397 -0.1612
vn 0.0993 0.9397 0.3272
vn -0.3403 0.9397 -0.0335
vn 0.0993 0.9397 -0.3272
vn 0.3016 0.9397 0.1612
vn -0.2643 0.9397 0.2169
vn -0.1612 0.9397 -0.3016
vn 0.3272 0.9397 -0.0993
vn -0.0335 0.9397 0.3403
vn 0.0335 0.9397 0.3403
vn 0.0000 1.0000 0.0000
s off
f 1/1/1 2/2/1 4/3/1 3/4/1
f 3/4/2 4/3/2 6/5/2 5/6/2
f 5/6/3 6/5/3 8/7/3 7/8/3
f 7/8/4 8/7/4 10/9/4 9/10/4
f 9/10/5 10/9/5 12/11/5 11/12/5
f 11/12/6 12/11/6 14/13/6 13/14/6
f 13/14/7 14/13/7 16/15/7 15/16/7
f 15/16/8 16/15/8 18/17/8 17/18/8
f 17/18/9 18/17/9 20/19/9 19/20/9
f 19/20/10 20/19/10 22/21/10 21/22/10
f 21/22/11 22/21/11 24/23/11 23/24/11
f 23/24/12 24/23/12 26/25/12 25/26/12
f 25/26/13 26/25/13 28/27/13 27/28/13
f 27/28/14 28/27/14 30/29/14 29/30/14
f 29/30/15 30/29/15 32/31/15 31/32/15
f 31/32/16 32/31/16 34/33/16 33/34/16
f 33/34/17 34/33/17 36/35/17 35/36/17
f 35/36/18 36/35/18 38/37/18 37/38/18
f 37/38/19 38/37/19 40/39/19 39/40/19
f 39/40/20 40/39/20 42/41/20 41/42/20
f 41/42/21 42/41/21 44/43/21 43/44/21
f 43/44/22 44/43/22 46/45/22 45/46/22
f 45/46/23 46/45/23 48/47/23 47/48/23
f 47/48/24 48/47/24 50/49/24 49/50/24
f 49/50/25 50/49/25 52/51/25 51/52/25
f 51/52/26 52/51/26 54/53/26 53/54/26
f 53/54/27 54/53/27 56/55/27 55/56/27
f 55/56/28 56/55/28 58/57/28 57/58/28
f 57/58/29 58/57/29 60/59/29 59/60/29
f 59/60/30 60/59/30 62/61/30 61/62/30
f 22/21/31 20/19/31 74/63/31 75/64/31
f 61/62/32 62/61/32 64/65/32 63/66/32
f 63/66/33 64/65/33 2/67/33 1/68/33
f 1/69/34 3/70/34 5/71/34 7/72/34 9/73/34 11/74/34 13/75/34 15/76/34 17/77/34 19/78/34 21/79/34 23/80/34 25/81/34 27/82/34 29/83/34 31/84/34 33/85/34 35/86/34 37/87/34 39/88/34 41/89/34 43/90/34 45/91/34 47/92/34 49/93/34 51/94/34 53/95/34 55/96/34 57/97/34 59/98/34 61/99/34 63/100/34
f 66/101/17 65/102/17 97/103/17 98/104/17
f 40/39/35 38/37/35 83/105/35 84/106/35
f 58/57/36 56/55/36 92/107/36 93/108/36
f 14/13/37 12/11/37 70/109/37 71/110/37
f 32/31/38 30/29/38 79/111/38 80/112/38
f 50/49/39 48/47/39 88/113/39 89/114/39
f 6/5/40 4/3/40 66/101/40 67/115/40
f 24/23/41 22/21/41 75/64/41 76/116/41
f 42/41/42 40/39/42 84/106/42 85/117/42
f 60/59/43 58/57/43 93/108/43 94/118/43
f 16/15/44 14/13/44 71/110/44 72/119/44
f 34/33/45 32/31/45 80/112/45 81/120/45
f 52/51/46 50/49/46 89/114/46 90/121/46
f 8/7/47 6/5/47 67/115/47 68/122/47
f 26/25/48 24/23/48 76/116/48 77/123/48
f 44/43/49 42/41/49 85/117/49 86/124/49
f 62/61/50 60/59/50 94/118/50 95/125/50
f 18/17/51 16/15/51 72/119/51 73/126/51
f 36/35/52 34/33/52 81/120/52 82/127/52
f 54/53/53 52/51/53 90/121/53 91/128/53
f 10/9/54 8/7/54 68/122/54 69/129/54
f 28/27/55 26/25/55 77/123/55 78/130/55
f 46/45/56 44/43/56 86/124/56 87/131/56
f 64/65/57 62/61/57 95/125/57 96/132/57
f 20/19/58 18/17/58 73/126/58 74/63/58
f 38/37/59 36/35/59 82/127/59 83/105/59
f 56/55/60 54/53/60 91/128/60 92/107/60
f 12/11/61 10/9/61 69/129/61 70/109/61
f 30/29/62 28/27/62 78/130/62 79/111/62
f 48/47/63 46/45/63 87/131/63 88/113/63
f 4/3/64 2/2/64 65/102/64 66/101/64
f 2/67/65 64/65/65 96/132/65 65/133/65
f 98/134/66 97/135/66 128/136/66 127/137/66 126/138/66 125/139/66 124/140/66 123/141/66 122/142/66 121/143/66 120/144/66 119/145/66 118/146/66 117/147/66 116/148/66 115/149/66 114/150/66 113/151/66 112/152/66 111/153/66 110/154/66 109/155/66 108/156/66 107/157/66 106/158/66 105/159/66 104/160/66 103/161/66 102/162/66 101/163/66 100/164/66 99/165/66
f 93/108/12 92/107/12 124/166/12 125/167/12
f 80/112/32 79/111/32 111/168/32 112/169/32
f 67/115/18 66/101/18 98/104/18 99/170/18
f 94/118/13 93/108/13 125/167/13 126/171/13
f 81/120/33 80/112/33 112/169/33 113/172/33
f 68/122/19 67/115/19 99/170/19 100/173/19
f 95/125/14 94/118/14 126/171/14 127/174/14
f 82/127/1 81/120/1 113/172/1 114/175/1
f 69/129/20 68/122/20 100/173/20 101/176/20
f 96/132/15 95/125/15 127/174/15 128/177/15
f 83/105/2 82/127/2 114/175/2 115/178/2
f 70/109/21 69/129/21 101/176/21 102/179/21
f 65/133/16 96/132/16 128/177/16 97/180/16
f 84/106/3 83/105/3 115/178/3 116/181/3
f 71/110/22 70/109/22 102/179/22 103/182/22
f 85/117/4 84/106/4 116/181/4 117/183/4
f 72/119/23 71/110/23 103/182/23 104/184/23
f 86/124/5 85/117/5 117/183/5 118/185/5
f 73/126/24 72/119/24 104/184/24 105/186/24
f 87/131/6 86/124/6 118/185/6 119/187/6
f 74/63/25 73/126/25 105/186/25 106/188/25
f 88/113/7 87/131/7 119/187/7 120/189/7
f 75/64/26 74/63/26 106/188/26 107/190/26
f 89/114/8 88/113/8 120/189/8 121/191/8
f 76/116/27 75/64/27 107/190/27 108/192/27
f 90/121/9 89/114/9 121/191/9 122/193/9
f 77/123/28 76/116/28 108/192/28 109/194/28
f 91/128/10 90/121/10 122/193/10 123/195/10
f 78/130/29 77/123/29 109/194/29 110/196/29
f 92/107/11 91/128/11 123/195/11 124/166/11
f 79/111/30 78/130/30 110/196/30 111/168/30
