# Created by Kenney (www.kenney.nl)

mtllib treeLarge.mtl

g treeLarge

v 0.03587321 0.414704 0.03587321
v -0.03587321 0.414704 0.03587321
v 0.03358568 0.7526604 0.03358568
v -0.03358568 0.7526604 0.03358568
v -0.06208825 0.1 -0.06208825
v 0.06208825 0.1 -0.06208825
v -0.03587321 0.414704 -0.03587321
v 0.03587321 0.414704 -0.03587321
v 0.03358568 0.7526604 -0.03358568
v -0.03358568 0.7526604 -0.03358568
v -0.06208825 0.1 0.06208825
v 0.06208825 0.1 0.06208825
v 0.09340078 1.057487E-17 0.09340078
v 0.09340078 1.057487E-17 -0.09340078
v -0.09340078 1.057487E-17 0.09340078
v -0.09340078 1.057487E-17 -0.09340078
v 0.1196695 0.7526604 0.2156707
v -0.1293656 0.7526604 0.2156707
v 0.06861784 1.052018 0.1272466
v -0.07831387 1.052018 0.1272466
v 0.1021107 0.9760923 -0.1852578
v 0.1897817 1.014055 -0.1123695
v -0.00484802 1.014055 -0.224739
v -0.00484802 1.052018 -0.2024676
v 0.1704941 1.052018 -0.1012338
v 0.1704941 1.052018 0.1012338
v 0.07549566 1.373632 -0.04638644
v 0.07549566 1.373632 0.04638644
v 0.1021107 0.9760923 0.1852578
v -0.004848014 1.014055 0.224739
v 0.1897817 1.014055 0.1123695
v -0.004848014 1.052018 0.2024676
v -0.004848018 1.373632 -0.09277289
v -0.1994777 1.014055 -0.1123695
v -0.1801901 1.052018 -0.1012338
v -0.2187653 0.9760923 -1.179532E-09
v -0.1801901 1.052018 0.1012338
v -0.1994777 1.014055 0.1123695
v -0.1118067 0.9760923 0.1852578
v -0.004848015 1.373632 0.09277288
v -0.08519169 1.373632 -0.04638644
v -0.08519169 1.373632 0.04638644
v -0.07664504 1.373632 -0.1243561
v 0.06694899 1.373632 -0.1243561
v -0.02135035 1.710972 -0.02858288
v 0.01165431 1.710972 -0.02858288
v 0.138746 1.373632 -2.747337E-09
v 0.02815665 1.710972 -1.099284E-09
v 0.01165432 1.710972 0.02858287
v -0.02135035 1.710972 0.02858287
v -0.03785268 1.710972 -1.155838E-10
v 0.066949 1.373632 0.1243561
v -0.004848018 1.319784 -0.1517144
v 0.07484667 1.346708 -0.1380353
v -0.08454271 1.346708 -0.1380353
v -0.148442 1.373632 1.532468E-09
v -0.004848015 0.6592723 0.2631183
v -0.1430625 0.7059663 0.2393945
v 0.1333665 0.7059663 0.2393945
v 0.1333665 0.7059663 -0.2393945
v 0.2230191 0.6592723 -0.1315591
v 0.1196695 0.7526604 -0.2156707
v 0.2441871 0.7526604 -5.566778E-09
v 0.271581 0.7059663 -5.975036E-09
v -0.07664503 1.373632 0.1243561
v -0.004848015 1.319784 0.1517144
v -0.0845427 1.346708 0.1380353
v 0.07484667 1.346708 0.1380353
v 0.1265405 1.319784 -0.07585721
v 0.1545414 1.346708 -2.982726E-09
v -0.1118067 0.9760923 -0.1852578
v 0.1265405 1.319784 0.07585721
v 0.2090693 0.9760923 -4.524326E-09
v -0.1430625 0.7059663 -0.2393945
v -0.1293656 0.7526604 -0.2156707
v -0.2327152 0.6592723 -0.1315591
v -0.2538832 0.7526604 1.856084E-09
v -0.281277 0.7059663 2.264341E-09
v -0.2327152 0.6592723 0.1315591
v 0.06861784 1.052018 -0.1272466
v 0.1420837 1.052018 -4.045106E-09
v -0.1642374 1.346708 1.767857E-09
v -0.1362366 1.319784 0.07585721
v 0.2230191 0.6592723 0.1315591
v -0.1362366 1.319784 -0.07585721
v -0.00484802 0.6592723 -0.2631183
v -0.07831388 1.052018 -0.1272466
v -0.1517797 1.052018 3.344117E-10

vn 0 0.04598577 0.9989421
vn 0 0.006768559 0.9999771
vn 0 0.2041619 -0.9789371
vn 0 0.04598577 -0.9989421
vn 0.9989421 0.04598577 0
vn 0.9999771 0.006768559 0
vn -0.9989421 0.04598577 0
vn -0.9999771 0.006768559 0
vn 0 0.006768559 -0.9999771
vn -0.9789371 0.2041619 0
vn 0.9789371 0.2041619 0
vn 0 0.2041619 0.9789371
vn 0 -1 0
vn 0 0.2988187 -0.9543099
vn 0.9543099 0.2988187 0
vn 0 0.2988187 0.9543099
vn -0.9543099 0.2988187 0
vn 0.4732311 0.3228149 0.8196602
vn -0.473231 0.3228149 0.8196602
vn 0.4457657 0.4529588 -0.7720889
vn 0.7469685 0.5060146 -0.4312625
vn 0 0.5060146 -0.8625249
vn 0 -0.5060146 0.8625249
vn -0.7469685 -0.5060146 0.4312625
vn -0.4457657 -0.4529588 0.7720889
vn 0.8196602 0.3228149 -0.4732311
vn 0.8196602 0.3228149 0.473231
vn 0.4457657 0.4529589 0.7720889
vn 0 0.5060146 0.8625249
vn 0.7469685 0.5060146 0.4312624
vn -0.7469685 -0.5060146 -0.4312624
vn 0 -0.5060146 -0.8625249
vn -0.4457657 -0.4529589 -0.7720889
vn 0 0.3228149 -0.9464621
vn -0.7469685 0.5060146 -0.4312624
vn -0.8915315 0.4529588 0
vn -0.7469685 0.5060146 0.4312625
vn 0.8915315 -0.4529588 0
vn 0.7469685 -0.5060146 0.4312624
vn 0.7469685 -0.5060146 -0.4312625
vn -0.4457657 0.4529589 0.7720889
vn 0.4457657 -0.4529589 -0.7720889
vn 0 0.3228149 0.9464621
vn -0.8196602 0.3228149 -0.473231
vn -0.8196602 0.3228149 0.4732311
vn -0.4751206 0.3115155 -0.822933
vn 0.4751205 0.3115154 -0.822933
vn -0.3438661 0.7259646 -0.5955935
vn 0.3438661 0.7259646 -0.5955935
vn 0.950241 0.3115154 0
vn 0.6877321 0.7259646 0
vn 0.3438661 0.7259646 0.5955935
vn -0.3438661 0.7259646 0.5955935
vn -0.6877321 0.7259646 0
vn 0.4751206 0.3115155 0.822933
vn 0 0.4529588 -0.8915315
vn 0.4312624 0.5060146 -0.7469685
vn -0.4312625 0.5060146 -0.7469685
vn 0.4312625 -0.5060146 0.7469685
vn -0.4312624 -0.5060146 0.7469685
vn 0 -0.4529588 0.8915315
vn -0.950241 0.3115154 0
vn 0 0.4529588 0.8915314
vn -0.4312624 0.5060146 0.7469685
vn 0.4312625 0.5060146 0.7469684
vn -0.4312625 -0.5060146 -0.7469684
vn 0.4312624 -0.5060146 -0.7469685
vn 0 -0.4529588 -0.8915314
vn 0.7720889 0.4529588 -0.4457657
vn 0.8625249 0.5060146 0
vn -0.7720889 -0.4529588 0.4457657
vn -0.8625249 -0.5060146 0
vn -0.4751205 0.3115154 0.822933
vn -0.4312625 0.5060146 0.7469685
vn 0.4312625 -0.5060146 -0.7469685
vn 0.7720889 0.4529589 -0.4457657
vn 0.8625249 0.5060146 0
vn -0.7720889 -0.4529589 0.4457657
vn -0.8625249 -0.5060146 0
vn -0.4457657 0.4529589 -0.7720889
vn 0.4457657 -0.4529589 0.7720889
vn 0.7720889 0.4529589 0.4457657
vn -0.7720889 -0.4529589 -0.4457657
vn 0.8915314 0.4529588 0
vn -0.8915314 -0.4529588 0
vn -0.7720889 0.4529588 -0.4457657
vn -0.8625249 0.5060146 0
vn 0.7720889 -0.4529588 0.4457657
vn 0.8625249 -0.5060146 0
vn -0.7720889 0.4529589 0.4457657
vn 0.7720889 -0.4529589 -0.4457657
vn 0.473231 0.3228149 -0.8196602
vn 0.9464621 0.3228149 0
vn -0.7720889 0.4529588 0.4457657
vn 0.7720889 -0.4529588 -0.4457657
vn -0.7720889 0.4529589 -0.4457657
vn 0.7720889 -0.4529589 0.4457657
vn 0 0.4529588 -0.8915314
vn 0 -0.4529588 0.8915314
vn -0.4732311 0.3228149 -0.8196602
vn -0.9464621 0.3228149 0

vt 1.412331 16.317
vt -1.412331 16.317
vt 1.322271 29.62267
vt -1.322271 29.62267
vt 2.444419 3.7205
vt -2.444419 3.7205
vt 1.412331 16.15333
vt -1.412331 16.15333
vt 3.677196 3.677196
vt 3.677196 -3.677196
vt -3.677196 3.677196
vt -3.677196 -3.677196
vt 3.677196 -1.098815
vt -3.677196 -1.098815
vt 2.444419 3.026688
vt -2.444419 3.026688
vt 4.7114 26.01315
vt -5.093133 26.01315
vt 2.70149 38.30227
vt -3.083223 38.30227
vt 0.1652955 30.48895
vt -4.258701 32.16538
vt 4.589292 32.16538
vt 4.150878 33.84182
vt -3.820287 33.84182
vt 3.985583 37.81994
vt -3.985582 37.81994
vt 1.826238 51.02274
vt -1.826238 51.02274
vt -0.1652955 30.48895
vt -4.589292 32.16538
vt 4.258701 32.16538
vt 3.820287 33.84182
vt -4.150878 33.84182
vt 4.150878 37.7929
vt -3.820287 37.7929
vt 1.991533 50.99571
vt -1.660942 50.99571
vt -4.423996 32.0357
vt -3.985583 33.71214
vt -1.747883E-07 30.35927
vt 3.985582 33.71214
vt 4.423996 32.0357
vt -0.1652955 30.40249
vt -4.589292 32.07893
vt 4.258701 32.07893
vt 3.820287 33.75536
vt -4.150878 33.75536
vt 3.820287 37.7929
vt -4.150878 37.7929
vt 1.660942 50.99571
vt -1.991533 50.99571
vt 4.150878 37.73883
vt -3.820287 37.73883
vt 1.991533 50.94164
vt -1.660942 50.94164
vt 3.820287 37.73883
vt -4.150878 37.73883
vt 1.660942 50.94164
vt -1.991533 50.94164
vt 3.017521 50.68684
vt -2.635787 50.68684
vt 0.8405649 64.49281
vt -0.4588313 64.49281
vt 2.922088 50.73198
vt -2.731221 50.73198
vt 0.7451316 64.53796
vt -0.5542647 64.53796
vt -1.108529 -4.32789E-08
vt -0.4588313 1.12531
vt -0.4588313 -1.12531
vt 0.8405649 1.12531
vt 0.840565 -1.12531
vt 1.490263 -4.550543E-09
vt 2.731221 50.73198
vt -2.922088 50.73198
vt 0.5542647 64.53796
vt -0.7451315 64.53796
vt 0.1908668 43.61845
vt -2.946719 44.80742
vt 3.328453 44.80742
vt 3.017521 45.99638
vt -2.635787 45.99638
vt -2.731221 50.64169
vt -0.5542647 64.44766
vt 2.922088 50.64169
vt 0.7451315 64.44766
vt -0.1908669 18.44804
vt -5.632382 20.51005
vt 5.250649 20.51005
vt 4.7114 22.57207
vt -5.093133 22.57207
vt 5.536949 20.58492
vt 0.0954334 18.52291
vt 4.9977 22.64694
vt -4.806833 22.64694
vt -5.346082 20.58492
vt 2.635787 50.68684
vt -3.017521 50.68684
vt 0.4588313 64.49281
vt -0.8405649 64.49281
vt -0.1908668 43.61845
vt -3.328453 44.80742
vt 2.946719 44.80742
vt 2.635787 45.99637
vt -3.017521 45.99637
vt 3.23302 44.88229
vt 0.09543343 43.69333
vt 2.922088 46.07125
vt -2.731221 46.07125
vt -3.042153 44.88229
vt -3.985583 37.7118
vt -1.826238 50.9146
vt 3.985582 37.7118
vt 1.826238 50.9146
vt -0.7451316 64.44766
vt 0.5542647 64.44766
vt -2.922088 50.64169
vt 2.731221 50.64169
vt 0.1652955 30.40249
vt -4.258701 32.07893
vt 4.589292 32.07893
vt 4.150878 33.75536
vt -3.820287 33.75536
vt 3.042153 44.88229
vt -0.09543343 43.69333
vt 2.731221 46.07125
vt -2.922088 46.07125
vt -3.23302 44.88229
vt 4.423996 32.20861
vt 5.54617E-08 30.53218
vt 3.985583 33.88504
vt -3.985582 33.88504
vt -4.423996 32.20861
vt -5.346082 20.43518
vt -4.806833 22.49719
vt 0.09543318 18.37317
vt 4.9977 22.49719
vt 5.536949 20.43518
vt -4.9977 22.49719
vt 4.806833 22.49719
vt -5.536949 20.43518
vt -0.09543346 18.37317
vt 5.346082 20.43518
vt 4.9977 26.05997
vt -4.806833 26.05997
vt 2.98779 38.34909
vt -2.796923 38.34909
vt -2.922088 45.9215
vt 2.731221 45.9215
vt -3.23302 44.73254
vt -0.09543351 43.54358
vt 3.042153 44.73254
vt 5.346082 20.58492
vt -0.09543332 18.52291
vt 4.806833 22.64694
vt -4.9977 22.64694
vt -5.536949 20.58492
vt -3.042153 44.73254
vt -2.731221 45.9215
vt 0.09543338 43.54358
vt 2.922088 45.9215
vt 3.23302 44.73254
vt 0.1908668 18.44804
vt -5.250649 20.51005
vt 5.632382 20.51005
vt 5.093133 22.57207
vt -4.7114 22.57207
vt 5.093133 26.01315
vt -4.7114 26.01315
vt 3.083223 38.30227
vt -2.70149 38.30227
vt 4.806833 26.05997
vt -4.9977 26.05997
vt 2.796923 38.34909
vt -2.98779 38.34909
vt -2.98779 38.25544
vt 2.796923 38.25544
vt -4.9977 25.96633
vt 4.806833 25.96633
vt -4.806833 25.96633
vt -2.796923 38.25544
vt 4.9977 25.96633
vt 2.98779 38.25544
vt 9.613667 -2.191645E-07
vt 4.7114 -8.490974
vt 4.7114 8.490974
vt 1.322271 1.322271
vt -5.093133 8.490974
vt 1.322271 -1.322271
vt -1.322271 1.322271
vt -5.093133 -8.490974
vt -1.322271 -1.322271
vt -9.995399 7.307416E-08
vt 6.712365 -3.985583
vt 5.593847 -1.592561E-07
vt 6.712365 3.985582
vt 2.70149 -5.009709
vt 2.70149 5.009708
vt -0.1908669 -7.971165
vt -0.1908667 7.971165
vt -3.083224 -5.009709
vt -3.083223 5.009709
vt -7.094098 -3.985582
vt -7.094098 3.985583
vt -5.97558 1.316582E-08
vt 5.462441 -1.081629E-07
vt 2.97227 1.826238
vt 2.635787 4.895909
vt 2.97227 -1.826238
vt -0.1908668 3.652476
vt 2.635787 -4.895909
vt -3.017521 4.895909
vt -0.1908669 -3.652476
vt -3.354003 1.826238
vt -3.017521 -4.895909
vt -5.844175 6.033338E-08
vt -3.354004 -1.826238

usemtl wood

f 3/3/2 2/2/1 1/1/1
f 2/2/1 3/3/2 4/4/2
f 7/7/4 6/6/3 5/5/3
f 6/6/3 7/7/4 8/8/4
f 9/3/6 1/2/5 8/1/5
f 1/2/5 9/3/6 3/4/6
f 2/1/7 10/4/8 7/2/7
f 10/4/8 2/1/7 4/3/8
f 10/3/9 8/2/4 7/1/4
f 8/2/4 10/3/9 9/4/9
f 11/5/10 7/8/7 5/6/10
f 7/8/7 11/5/10 2/7/7
f 8/7/5 12/6/11 6/5/11
f 12/6/11 8/7/5 1/8/5
f 1/7/1 11/6/12 12/5/12
f 11/6/12 1/7/1 2/8/1
f 15/11/13 14/10/13 13/9/13
f 14/10/13 15/11/13 16/12/13
f 5/15/3 14/14/14 16/13/14
f 14/14/14 5/15/3 6/16/3
f 6/15/11 13/14/15 14/13/15
f 13/14/15 6/15/11 12/16/11
f 12/15/12 15/14/16 13/13/16
f 15/14/16 12/15/12 11/16/12
f 15/13/17 5/16/10 16/14/17
f 5/16/10 15/13/17 11/15/10

usemtl foliage

f 19/19/18 18/18/19 17/17/18
f 18/18/19 19/19/18 20/20/19
f 23/23/22 22/22/21 21/21/20
f 22/22/21 23/23/22 24/24/22
f 22/22/21 24/24/22 25/25/21
f 21/21/25 22/22/24 23/23/23
f 24/24/23 23/23/23 22/22/24
f 25/25/24 24/24/23 22/22/24
f 27/28/26 26/27/27 25/26/26
f 26/27/27 27/28/26 28/29/27
f 31/32/30 30/31/29 29/30/28
f 30/31/29 31/32/30 26/33/30
f 30/31/29 26/33/30 32/34/29
f 29/30/33 30/31/32 31/32/31
f 26/33/31 31/32/31 30/31/32
f 32/34/32 26/33/31 30/31/32
f 33/37/34 25/36/26 24/35/34
f 25/36/26 33/37/34 27/38/26
f 36/41/36 35/40/35 34/39/35
f 35/40/35 36/41/36 37/42/37
f 37/42/37 36/41/36 38/43/37
f 34/39/39 35/40/39 36/41/38
f 37/42/40 36/41/38 35/40/39
f 38/43/40 36/41/38 37/42/40
f 30/46/29 38/45/37 39/44/41
f 38/45/37 30/46/29 32/47/29
f 38/45/37 32/47/29 37/48/37
f 39/44/42 38/45/40 30/46/32
f 32/47/32 30/46/32 38/45/40
f 37/48/40 32/47/32 38/45/40
f 28/51/27 32/50/43 26/49/27
f 32/50/43 28/51/27 40/52/43
f 41/55/44 24/54/34 35/53/44
f 24/54/34 41/55/44 33/56/34
f 40/59/43 37/58/45 32/57/43
f 37/58/45 40/59/43 42/60/45
f 45/63/48 44/62/47 43/61/46
f 44/62/47 45/63/48 46/64/49
f 46/67/49 47/66/50 44/65/47
f 47/66/50 46/67/49 48/68/51
f 46/71/49 49/70/52 48/69/51
f 49/70/52 46/71/49 50/72/53
f 50/72/53 46/71/49 45/73/48
f 50/72/53 45/73/48 51/74/54
f 48/77/51 52/76/55 47/75/50
f 52/76/55 48/77/51 49/78/52
f 55/81/58 54/80/57 53/79/56
f 54/80/57 55/81/58 43/82/58
f 54/80/57 43/82/58 44/83/57
f 53/79/61 54/80/60 55/81/59
f 43/82/59 55/81/59 54/80/60
f 44/83/60 43/82/59 54/80/60
f 56/86/62 45/85/48 43/84/46
f 45/85/48 56/86/62 51/87/54
f 59/90/65 58/89/64 57/88/63
f 58/89/64 59/90/65 17/91/65
f 58/89/64 17/91/65 18/92/64
f 57/88/68 58/89/67 59/90/66
f 17/91/66 59/90/66 58/89/67
f 18/92/67 17/91/66 58/89/67
f 62/95/57 61/94/69 60/93/57
f 61/94/69 62/95/57 63/96/70
f 61/94/69 63/96/70 64/97/70
f 60/93/60 61/94/71 62/95/60
f 63/96/72 62/95/60 61/94/71
f 64/97/72 63/96/72 61/94/71
f 49/100/52 65/99/73 52/98/55
f 65/99/73 49/100/52 50/101/53
f 68/104/65 67/103/64 66/102/63
f 67/103/64 68/104/65 52/105/65
f 67/103/64 52/105/65 65/106/74
f 66/102/68 67/103/67 68/104/66
f 52/105/66 68/104/66 67/103/67
f 65/106/75 52/105/66 67/103/67
f 44/109/57 69/108/76 54/107/57
f 69/108/76 44/109/57 47/110/77
f 69/108/76 47/110/77 70/111/77
f 54/107/60 69/108/78 44/109/60
f 47/110/79 44/109/60 69/108/78
f 70/111/79 47/110/79 69/108/78
f 37/114/45 41/113/44 35/112/44
f 41/113/44 37/114/45 42/115/45
f 56/118/62 50/117/53 51/116/54
f 50/117/53 56/118/62 65/119/73
f 34/122/35 23/121/22 71/120/80
f 23/121/22 34/122/35 35/123/35
f 23/121/22 35/123/35 24/124/22
f 71/120/81 23/121/23 34/122/39
f 35/123/39 34/122/39 23/121/23
f 24/124/23 35/123/39 23/121/23
f 47/127/77 72/126/82 70/125/77
f 72/126/82 47/127/77 52/128/65
f 72/126/82 52/128/65 68/129/65
f 70/125/79 72/126/83 47/127/79
f 52/128/66 47/127/79 72/126/83
f 68/129/66 52/128/66 72/126/83
f 25/132/21 73/131/84 22/130/21
f 73/131/84 25/132/21 26/133/30
f 73/131/84 26/133/30 31/134/30
f 22/130/24 73/131/85 25/132/24
f 26/133/31 25/132/24 73/131/85
f 31/134/31 26/133/31 73/131/85
f 76/137/86 75/136/58 74/135/58
f 75/136/58 76/137/86 77/138/87
f 77/138/87 76/137/86 78/139/87
f 74/135/59 75/136/59 76/137/88
f 77/138/89 76/137/88 75/136/59
f 78/139/89 76/137/88 77/138/89
f 78/142/87 18/141/64 77/140/87
f 18/141/64 78/142/87 79/143/90
f 18/141/64 79/143/90 58/144/64
f 77/140/89 18/141/67 78/142/89
f 79/143/91 78/142/89 18/141/67
f 58/144/67 79/143/91 18/141/67
f 80/147/92 63/146/93 62/145/92
f 63/146/93 80/147/92 81/148/93
f 82/151/87 65/150/74 56/149/87
f 65/150/74 82/151/87 83/152/94
f 65/150/74 83/152/94 67/153/64
f 56/149/89 65/150/75 82/151/89
f 83/152/95 82/151/89 65/150/75
f 67/153/67 83/152/95 65/150/75
f 63/156/70 84/155/82 64/154/70
f 84/155/82 63/156/70 17/157/65
f 84/155/82 17/157/65 59/158/65
f 64/154/72 84/155/83 63/156/72
f 17/157/66 63/156/72 84/155/83
f 59/158/66 17/157/66 84/155/83
f 85/161/96 43/160/58 55/159/58
f 43/160/58 85/161/96 56/162/87
f 56/162/87 85/161/96 82/163/87
f 55/159/59 43/160/59 85/161/97
f 56/162/89 85/161/97 43/160/59
f 82/163/89 85/161/97 56/162/89
f 74/166/58 60/165/57 86/164/98
f 60/165/57 74/166/58 75/167/58
f 60/165/57 75/167/58 62/168/57
f 86/164/99 60/165/60 74/166/59
f 75/167/59 74/166/59 60/165/60
f 62/168/60 75/167/59 60/165/60
f 87/171/100 62/170/92 75/169/100
f 62/170/92 87/171/100 80/172/92
f 81/175/93 17/174/18 63/173/93
f 17/174/18 81/175/93 19/176/18
f 77/179/101 20/178/19 88/177/101
f 20/178/19 77/179/101 18/180/19
f 77/183/101 87/182/100 75/181/100
f 87/182/100 77/183/101 88/184/101
f 17/187/13 62/186/13 63/185/13
f 62/186/13 17/187/13 3/188/13
f 3/188/13 17/187/13 18/189/13
f 9/190/13 62/186/13 3/188/13
f 3/188/13 18/189/13 4/191/13
f 62/186/13 9/190/13 75/192/13
f 4/191/13 18/189/13 10/193/13
f 75/192/13 9/190/13 10/193/13
f 75/192/13 10/193/13 18/189/13
f 75/192/13 18/189/13 77/194/13
f 26/197/13 81/196/13 25/195/13
f 80/198/13 25/195/13 81/196/13
f 81/196/13 26/197/13 19/199/13
f 25/195/13 80/198/13 24/200/13
f 19/199/13 26/197/13 32/201/13
f 24/200/13 80/198/13 87/202/13
f 19/199/13 32/201/13 20/203/13
f 24/200/13 87/202/13 35/204/13
f 20/203/13 32/201/13 37/205/13
f 35/204/13 87/202/13 88/206/13
f 20/203/13 37/205/13 88/206/13
f 35/204/13 88/206/13 37/205/13
f 52/209/13 28/208/13 47/207/13
f 27/210/13 47/207/13 28/208/13
f 28/208/13 52/209/13 40/211/13
f 47/207/13 27/210/13 44/212/13
f 40/211/13 52/209/13 65/213/13
f 44/212/13 27/210/13 33/214/13
f 40/211/13 65/213/13 42/215/13
f 44/212/13 33/214/13 43/216/13
f 42/215/13 65/213/13 56/217/13
f 43/216/13 33/214/13 41/218/13
f 42/215/13 56/217/13 41/218/13
f 43/216/13 41/218/13 56/217/13

