# ProBuilder 4.4.0
# https://unity3d.com/unity/features/worldbuilding/probuilder
# 1/28/2021 6:08:50 PM

mtllib ./Car2.mtl
o Car2

g Car2
v -0.5 -0.25 1
v -0.5 0.15 1
v 0.5 0.15 1
v 0.5 -0.25 1
v -0.3 0.3624969 0.2665981
v -0.3 0.3624969 -0.7315229
v 0.3 0.3624969 -0.7315229
v 0.3 0.3624969 0.2665981
v -0.5 0.15 -1
v -0.5 -0.25 -1
v 0.5 -0.25 -1
v 0.5 0.15 -1

vt 0 0
vt 0 0.8
vt 1 0.8
vt 1 0
vt 0.2 0.2
vt 0.2 0.8
vt 0.8 0.8
vt 0.8 0.2
vt 0 0.2
vt 0 1
vt 1 1
vt 1 0.2
vt 0.1332991 0.5282454
vt -0.3657615 0.5282454
vt 0.5 0.05854379
vt -0.5 0.05854379
vt 0.3 0.5811628
vt -0.3 0.5811628
vt 0.5 0.1354727
vt -0.5 0.1354727
vt 0.3657615 0.5282454
vt -0.1332991 0.5282454
vt -0.5 -0.0995004
vt 0.5 -0.0995004
vt -0.3 0.4618277
vt 0.3 0.4618277

vn 0 0 2
vn 0 0.5 0
vn 0 0 -2
vn 0 -0.5 0
vn 1 0 0
vn -1 0 0
vn -0.9048163 0.2129011 0
vn 0 0.1505963 -1.907127
vn 0.9048163 0.2129011 0
vn 0 0.3266369 1.514243

usemtl Lit
f 4/4/1 3/3/1 2/2/1 1/1/1
f 8/8/2 7/7/2 6/6/2 5/5/2
f 12/12/3 11/11/3 10/10/3 9/9/3
f 11/4/4 4/11/4 1/10/4 10/1/4
f 11/4/5 12/3/5 3/2/5 4/1/5
f 1/4/6 2/3/6 9/2/6 10/1/6
f 9/16/7 2/15/7 5/13/7 6/14/7
f 12/20/8 9/19/8 6/17/8 7/18/8
f 3/16/9 12/15/9 7/21/9 8/22/9
f 8/26/10 5/25/10 2/23/10 3/24/10

